<svg xmlns="http://www.w3.org/2000/svg" viewBox="0 0 24 16" role="img" aria-label="China">
  <rect width="24" height="16" fill="#de2910"/>
  <path fill="#ffde00" d="M4.2 2.8l.9 2.7h2.8l-2.3 1.7.9 2.7-2.3-1.7-2.3 1.7.9-2.7-2.3-1.7h2.8z"/>
  <path fill="#ffde00" d="M10.5 1.4l.3.9h1l-.8.6.3.9-.8-.6-.8.6.3-.9-.8-.6h1zm0 3.2l.3.9h1l-.8.6.3.9-.8-.6-.8.6.3-.9-.8-.6h1zm1.2 2.4l.3.9h1l-.8.6.3.9-.8-.6-.8.6.3-.9-.8-.6h1zm-2.4 0l.3.9h1l-.8.6.3.9-.8-.6-.8.6.3-.9-.8-.6h1zm-1.2-2.4l.3.9h1l-.8.6.3.9-.8-.6-.8.6.3-.9-.8-.6h1z"/>
</svg>
